<mxfile host="65bd71144e">
    <diagram id="xZ0CoMloZtWVJ8pT4MUV" name="Page-1">
        <mxGraphModel dx="898" dy="480" grid="1" gridSize="10" guides="1" tooltips="1" connect="1" arrows="1" fold="1" page="1" pageScale="1" pageWidth="800" pageHeight="200" background="#ffffff" math="0" shadow="0">
            <root>
                <mxCell id="0"/>
                <mxCell id="1" parent="0"/>
                <mxCell id="12" value="Column 1" style="rounded=0;whiteSpace=wrap;html=1;fontStyle=1" vertex="1" parent="1">
                    <mxGeometry y="200" width="200" height="200" as="geometry"/>
                </mxCell>
                <mxCell id="16" value="Column 2" style="rounded=0;whiteSpace=wrap;html=1;" vertex="1" parent="1">
                    <mxGeometry x="200" y="200" width="200" height="200" as="geometry"/>
                </mxCell>
                <mxCell id="17" value="Column 3" style="rounded=0;whiteSpace=wrap;html=1;" vertex="1" parent="1">
                    <mxGeometry x="400" y="200" width="200" height="200" as="geometry"/>
                </mxCell>
                <mxCell id="18" value="Column 4" style="rounded=0;whiteSpace=wrap;html=1;" vertex="1" parent="1">
                    <mxGeometry x="600" y="200" width="200" height="200" as="geometry"/>
                </mxCell>
            </root>
        </mxGraphModel>
    </diagram>
</mxfile>